D:\school\WTK\thesis\model\3dpredictsim\Results\Batchsim_tmt_linear_v2\Pog_s1_tmt_bCst_d02_k800_ig24_pas_GRF.mot
nRows=12
nColumns=19

name D:\school\WTK\thesis\model\3dpredictsim\Results\Batchsim_tmt_linear_v2\Pog_s1_tmt_bCst_d02_k800_ig24_pas_GRF.mot
datacolumns 19
datarows 12
range 0.0000000000 0.1190525834
endheader
time 	ground_force_vx	ground_force_vy	ground_force_vz	ground_force_px	ground_force_py	ground_force_pz	1_ground_force_vx	1_ground_force_vy	1_ground_force_vz	1_ground_force_px	1_ground_force_py	1_ground_force_pz	ground_torque_x	ground_torque_y	ground_torque_z	1_ground_torque_x	1_ground_torque_y	1_ground_torque_z
        0.0000000000	      -79.3403498839	       61.0162065708	       17.6047825435	        0.1595829725	        0.0000000000	        0.0454457013	      110.7026959971	      463.3800329035	        2.3660705283	       -0.3514207166	        0.0000000000	       -0.0468397528	        0.0000000000	        0.0000000000	        0.0000000000	        0.0000000000	        0.0000000000	        0.0000000000	
        0.0108229621	     -138.9608834584	      140.9233466933	       45.5922021979	        0.1676464592	        0.0000000000	        0.0438945321	       76.8801544583	      362.7208712360	       -3.7923685237	       -0.3368023508	        0.0000000000	       -0.0445265755	        0.0000000000	        0.0000000000	        0.0000000000	        0.0000000000	        0.0000000000	        0.0000000000	
        0.0216459243	      -62.7725524643	      293.7753436576	       19.0399462809	        0.1742365497	        0.0000000000	        0.0424214150	       39.6630122660	      257.6113078465	       -7.3247837611	       -0.3131860388	        0.0000000000	       -0.0402346703	        0.0000000000	        0.0000000000	        0.0000000000	        0.0000000000	        0.0000000000	        0.0000000000	
        0.0324688864	      -62.2176290009	      481.6296294092	       -0.0373524279	        0.1792261201	        0.0000000000	        0.0430387567	       12.1929408527	      174.0482715777	       -8.4176794895	       -0.2818960385	        0.0000000000	       -0.0328777205	        0.0000000000	        0.0000000000	        0.0000000000	        0.0000000000	        0.0000000000	        0.0000000000	
        0.0432918485	     -102.4758443854	      725.1445613807	      -11.4214666323	        0.1892266226	        0.0000000000	        0.0459669300	       -0.3358651023	      140.3675215507	      -11.3127604021	       -0.2723443453	        0.0000000000	       -0.0298196554	        0.0000000000	        0.0000000000	        0.0000000000	        0.0000000000	        0.0000000000	        0.0000000000	
        0.0541148106	     -129.1508684210	      890.3480376725	      -17.7093659312	        0.1962893741	        0.0000000000	        0.0479559015	       -0.9441485361	      106.8466219727	      -12.2720139983	       -0.2717957484	        0.0000000000	       -0.0299893732	        0.0000000000	        0.0000000000	        0.0000000000	        0.0000000000	        0.0000000000	        0.0000000000	
        0.0649377728	     -133.1878237037	      937.5085417037	      -19.1880038634	        0.2011334489	        0.0000000000	        0.0491996475	       -3.8769012556	       69.0623230319	      -11.7259050565	       -0.2713194383	        0.0000000000	       -0.0301352405	        0.0000000000	        0.0000000000	        0.0000000000	        0.0000000000	        0.0000000000	        0.0000000000	
        0.0757607349	     -124.4621436291	      909.9526720132	      -18.6794655418	        0.2049401302	        0.0000000000	        0.0500553231	       -8.4605093530	       28.6477491442	       -6.3307819732	       -0.2716599605	        0.0000000000	       -0.0299698901	        0.0000000000	        0.0000000000	        0.0000000000	        0.0000000000	        0.0000000000	        0.0000000000	
        0.0865836970	     -110.8006171764	      862.7866225621	      -17.5369824524	        0.2086248639	        0.0000000000	        0.0506932838	        0.1561184468	       -0.1563819134	        0.0122272273	        0.0000000000	        0.0000000000	        0.0000000000	        0.0000000000	        0.0000000000	        0.0000000000	        0.0000000000	        0.0000000000	        0.0000000000	
        0.0974066591	      -97.9996985791	      821.6383818315	      -17.2870602664	        0.2129814842	        0.0000000000	        0.0514129476	        0.0003665132	       -0.0003016745	       -0.0000046081	        0.0000000000	        0.0000000000	        0.0000000000	        0.0000000000	        0.0000000000	        0.0000000000	        0.0000000000	        0.0000000000	        0.0000000000	
        0.1082296213	      -90.5451503781	      794.0205068280	      -17.6589977443	        0.2188331762	        0.0000000000	        0.0518383483	        0.0001567042	       -0.0001123566	       -0.0000048977	        0.0000000000	        0.0000000000	        0.0000000000	        0.0000000000	        0.0000000000	        0.0000000000	        0.0000000000	        0.0000000000	        0.0000000000	
        0.1190525834	      -82.0242290394	      760.7974582781	      -17.3076225540	        0.2248956023	        0.0000000000	        0.0519707639	        0.0012032437	       -0.0007731024	       -0.0000475210	        0.0000000000	        0.0000000000	        0.0000000000	        0.0000000000	        0.0000000000	        0.0000000000	        0.0000000000	        0.0000000000	        0.0000000000	
